# Blender v3.2.0 OBJ File: ''
# www.blender.org
mtllib Grass.mtl
o Plane
v -0.000000 4.577383 0.216668
v 0.000000 0.033603 0.276340
v -0.000000 4.577383 -0.216668
v 0.000000 0.033603 -0.276340
v -0.000000 6.000000 0.000000
v 0.000000 2.354010 0.335671
v 0.000000 2.354010 -0.335671
vt 0.000000 0.000000
vt 0.000000 0.000000
vt 0.000000 0.000000
vt 0.000000 0.000000
vt 0.000000 0.000000
vt 0.000000 0.000000
vt 0.000000 0.000000
vn -1.0000 -0.0000 0.0000
usemtl None
s off
f 5/1/1 3/2/1 7/3/1 4/4/1 2/5/1 6/6/1 1/7/1
